<svg xmlns="http://www.w3.org/2000/svg" version="1.1" xmlns:xlink="http://www.w3.org/1999/xlink" xmlns:svgjs="http://svgjs.dev/svgjs" width="1500" height="1347" viewBox="0 0 1500 1347"><g transform="matrix(1,0,0,1,-0.054103087033468,-1.6426829268291385)"><svg viewBox="0 0 365 328" data-background-color="#d2d6dc" preserveAspectRatio="xMidYMid meet" height="1347" width="1500" xmlns="http://www.w3.org/2000/svg" xmlns:xlink="http://www.w3.org/1999/xlink"><g id="tight-bounds" transform="matrix(1,0,0,1,0.013165084511484793,0.39999999999997726)"><svg viewBox="0 0 364.97301851658125 327.2" height="327.2" width="364.97301851658125"><g><svg viewBox="0 0 395.52 354.5855102549739" height="327.2" width="364.97301851658125"><g transform="matrix(1,0,0,1,0,230.01604315713317)"><svg viewBox="0 0 395.52 124.56946709784073" height="124.56946709784073" width="395.52"><g id="textblocktransform"><svg viewBox="0 0 395.52 124.56946709784073" height="124.56946709784073" width="395.52" id="textblock"><g><svg viewBox="0 0 395.52 95.94208014044689" height="95.94208014044689" width="395.52"><g transform="matrix(1,0,0,1,0,0)"><svg width="395.52" viewBox="-1.61147 -34.26417 198.33930396441949 48.11156" height="95.94208014044689" data-palette-color="#6b7280"><path d="M-1.611-18.624l6.471 32.471 4.835-0.963-5.789-29.049 0.117-0.023 14.116 25.543 5.874-1.171 3.243-29.003 0.118-0.023 5.79 29.048 4.835-0.963-6.472-32.472-8.003 1.595-3.096 28.872-0.098 0.02-13.929-25.479zM54.376 5.588v0c4.318-0.496 7.376-2.062 9.174-4.698 1.798-2.636 2.408-6.464 1.831-11.484v0c-0.576-5.014-2.037-8.594-4.384-10.74-2.346-2.14-5.678-2.961-9.997-2.465v0c-4.305 0.495-7.361 2.05-9.167 4.667-1.806 2.623-2.421 6.442-1.845 11.455v0c0.577 5.02 2.043 8.61 4.398 10.768 2.355 2.159 5.685 2.991 9.99 2.497zM53.987 2.2v0c-2.258 0.259-4.21-0.318-5.856-1.733-1.639-1.416-2.709-4.309-3.212-8.68v0c-0.502-4.371-0.115-7.429 1.161-9.173 1.283-1.744 3.053-2.746 5.311-3.006v0c2.258-0.259 4.21 0.315 5.855 1.723 1.638 1.409 2.708 4.299 3.211 8.671v0c0.502 4.371 0.116 7.432-1.16 9.182-1.282 1.751-3.052 2.756-5.31 3.016zM81.552-30.001l0.775 33.101 19.515-0.457-0.081-3.459-14.516 0.34-0.694-29.642zM107.072-26.325l-0.445 29.086 4.979 0.077 0.445-29.087zM112.173-34.188l-4.98-0.076-0.067 4.389 4.98 0.077zM119.065-25.872l-1.885 28.999 4.94 0.321 1.52-23.391-0.684-5.676zM136.438-12.257l-1.076 16.565 4.94 0.321 1.078-16.595c0.256-3.945-0.237-7.094-1.481-9.446-1.251-2.346-3.556-3.628-6.915-3.846v0c-3.38-0.22-6.209 0.652-8.487 2.615-2.285 1.963-3.505 4.135-3.661 6.517v0l2.297 1.672c0.148-2.282 0.983-4.128 2.504-5.539 1.514-1.405 3.293-2.041 5.335-1.908v0c2.036 0.132 3.51 0.933 4.424 2.401 0.913 1.469 1.261 3.883 1.042 7.243zM160.144-11.689l-3.837 2.98 6.165 16.305 5.323 0.708zM149.734-32.937l-5.075 38.164 4.907 0.653 1.39-10.458 5.612-4.046 3.428-2.56 11.297-9.393-5.789-0.77-13.815 11.257 2.951-22.194zM181.428 11.293v0c3.754 0.741 6.736 0.661 8.947-0.241 2.209-0.896 3.573-2.658 4.092-5.288v0c0.563-2.852-0.029-5.014-1.777-6.487-1.754-1.474-4.022-2.792-6.803-3.953v0c-2.348-1.048-4.26-2.034-5.736-2.957-1.476-0.923-2.048-2.222-1.718-3.897v0c0.262-1.328 0.997-2.28 2.205-2.857 1.208-0.577 2.894-0.652 5.06-0.224v0c2.243 0.443 3.912 1.337 5.005 2.681 1.092 1.351 1.565 3.102 1.419 5.254v0l4.596-0.611c0.113-3.015-0.714-5.35-2.481-7.003-1.759-1.659-4.378-2.832-7.857-3.519v0c-3.499-0.691-6.38-0.587-8.644 0.311-2.256 0.893-3.628 2.576-4.116 5.048v0c-0.535 2.708-0.008 4.823 1.581 6.347 1.588 1.523 3.772 2.886 6.552 4.087v0c2.441 1.06 4.444 2.067 6.009 3.021 1.559 0.947 2.16 2.326 1.802 4.138v0c-0.251 1.269-1.002 2.184-2.254 2.745-1.252 0.561-2.977 0.625-5.176 0.191v0c-2.322-0.459-4.067-1.343-5.234-2.655-1.167-1.318-1.647-3.206-1.44-5.666v0l-4.597 0.621c-0.133 3.29 0.734 5.761 2.602 7.415 1.875 1.655 4.529 2.821 7.963 3.499z" opacity="1" transform="matrix(1,0,0,1,0,0)" fill="#6b7280" class="wordmark-text-0" data-fill-palette-color="primary" id="text-0"></path></svg></g></svg></g><g transform="matrix(1,0,0,1,118.31980799999998,103.809035749299)"><svg viewBox="0 0 158.88038400000002 20.760431348541726" height="20.760431348541726" width="158.88038400000002"><g transform="matrix(1,0,0,1,0,0)"><svg width="158.88038400000002" viewBox="1.7 -36.15 346.25 45.25" height="20.760431348541726" data-palette-color="#6b7280"><path d="M1.7 0L6.55-34.3 10.95-34.3 6.7-4 20.7-4 20.1 0 1.7 0ZM24.7 0L28.35-26.3 32.45-26.3 28.75 0 24.7 0ZM28.95-31.4L29.65-36.15 33.9-36.15 33.2-31.4 28.95-31.4ZM35.3 0L39-26.3 42.2-26.3 42.2-22.4Q43.05-24.1 44.75-25.5 46.45-26.9 49.2-26.9L49.2-26.9Q52.2-26.9 53.55-25.23 54.9-23.55 54.9-21L54.9-21Q54.9-19.5 52.09 0L52.09 0 48 0Q50.7-18.55 50.7-20.05L50.7-20.05Q50.7-23.25 47.7-23.25L47.7-23.25Q45.25-23.25 43.62-20.93 42-18.6 41.45-14.7L41.45-14.7 39.4 0 35.3 0ZM57.94 0L62.99-36.15 67.09-36.15 64.04-14.6 73.89-26.3 78.79-26.3 69.49-15.5 75.49 0 70.99 0 66.59-12.1 63.34-9.35 62.04 0 57.94 0ZM84.29 0L99.99-34.3 105.64-34.3 111.69 0 107.14 0 105.84-7.65 92.09-7.65 88.64 0 84.29 0ZM93.89-11.65L105.19-11.65 102.64-26.9Q102.44-28 102.39-30.7L102.39-30.7 102.19-30.7Q101.24-27.95 100.79-26.9L100.79-26.9 93.89-11.65ZM114.29 0L119.29-36.15 123.39-36.15 118.34 0 114.29 0ZM123.38 0L128.38-36.15 132.48-36.15 127.43 0 123.38 0ZM148.83 0.5Q146.68 0.5 145.73-0.68 144.78-1.85 144.78-3.75L144.78-3.75Q144.78-5 147.38-22.65L147.38-22.65 145.13-22.65 145.63-26.3 147.88-26.3 149.68-33.6 153.03-33.6 151.98-26.3 155.53-26.3 155.03-22.65 151.48-22.65Q148.98-5.45 148.98-4.9L148.98-4.9Q148.98-3.05 150.83-3.05L150.83-3.05 152.28-3.05 151.88-0.2Q151.28 0.1 150.43 0.3 149.58 0.5 148.83 0.5L148.83 0.5ZM155.58 0L160.63-36.15 164.73-36.15 162.93-23.25Q163.88-24.75 165.48-25.83 167.08-26.9 169.43-26.9L169.43-26.9Q172.43-26.9 173.78-25.23 175.13-23.55 175.13-21L175.13-21Q175.13-19.5 172.33 0L172.33 0 168.23 0Q170.93-18.55 170.93-20.05L170.93-20.05Q170.93-23.25 167.93-23.25L167.93-23.25Q165.48-23.25 163.85-20.93 162.23-18.6 161.68-14.7L161.68-14.7 159.63 0 155.58 0ZM187.52 0.6Q183.37 0.6 181.2-1.78 179.02-4.15 179.02-8.95L179.02-8.95Q179.02-16.1 181.55-21.5 184.07-26.9 190.17-26.9L190.17-26.9Q198.27-26.9 198.27-17.45L198.27-17.45Q198.27-14.5 197.87-11.95L197.87-11.95 183.42-11.95Q183.27-10.4 183.27-9.3L183.27-9.3Q183.27-3.05 187.52-3.05L187.52-3.05Q189.67-3.05 191.2-4.75 192.72-6.45 193.07-8.9L193.07-8.9 197.22-8.9Q196.57-4.8 194.05-2.1 191.52 0.6 187.52 0.6L187.52 0.6ZM183.92-15.6L193.97-15.6Q194.02-16.25 194.02-17.4L194.02-17.4Q194.02-23.25 190.17-23.25L190.17-23.25Q187.67-23.25 186.15-21.08 184.62-18.9 183.92-15.6L183.92-15.6ZM218.87 0L223.12-30.3 213.77-30.3 214.37-34.3 237.47-34.3 236.87-30.3 227.52-30.3 223.27 0 218.87 0ZM236.72 0L241.77-36.15 245.87-36.15 244.07-23.25Q245.02-24.75 246.62-25.83 248.22-26.9 250.57-26.9L250.57-26.9Q253.57-26.9 254.92-25.23 256.27-23.55 256.27-21L256.27-21Q256.27-19.5 253.47 0L253.47 0 249.37 0Q252.07-18.55 252.07-20.05L252.07-20.05Q252.07-23.25 249.07-23.25L249.07-23.25Q246.62-23.25 244.99-20.93 243.37-18.6 242.82-14.7L242.82-14.7 240.77 0 236.72 0ZM260.31 0L263.96-26.3 268.06-26.3 264.36 0 260.31 0ZM264.56-31.4L265.26-36.15 269.51-36.15 268.81-31.4 264.56-31.4ZM270.91 0L274.61-26.3 277.81-26.3 277.81-22.4Q278.66-24.1 280.36-25.5 282.06-26.9 284.81-26.9L284.81-26.9Q287.81-26.9 289.16-25.23 290.51-23.55 290.51-21L290.51-21Q290.51-19.5 287.71 0L287.71 0 283.61 0Q286.31-18.55 286.31-20.05L286.31-20.05Q286.31-23.25 283.31-23.25L283.31-23.25Q280.86-23.25 279.24-20.93 277.61-18.6 277.06-14.7L277.06-14.7 275.01 0 270.91 0ZM300.86 9.1Q297.01 9.1 294.98 6.85 292.96 4.6 292.96 1.2L292.96 1.2 297.06 1.2Q297.06 5.5 301.01 5.5L301.01 5.5Q303.41 5.5 304.78 3.88 306.16 2.25 306.71-1.25L306.71-1.25 307.26-4.55Q305.91-2.4 304.46-1.4 303.01-0.4 301.16-0.4L301.16-0.4Q297.71-0.4 296.08-3.05 294.46-5.7 294.46-9.5L294.46-9.5Q294.46-15.2 295.91-19.13 297.36-23.05 299.66-24.98 301.96-26.9 304.56-26.9L304.56-26.9Q306.61-26.9 308.03-25.93 309.46-24.95 310.21-22.65L310.21-22.65 311.06-26.3 314.31-26.3 310.96-2.45Q310.11 3.6 307.63 6.35 305.16 9.1 300.86 9.1L300.86 9.1ZM302.46-4.05Q304.71-4.05 306.13-6.48 307.56-8.9 308.18-12.08 308.81-15.25 308.81-17.6L308.81-17.6Q308.71-23.25 305.11-23.25L305.11-23.25Q302.61-23.25 301.18-20.78 299.76-18.3 299.21-15.08 298.66-11.85 298.66-9.1L298.66-9.1Q298.66-4.05 302.46-4.05L302.46-4.05ZM324.71 0.6Q322.41 0.6 320.53-0.4 318.66-1.4 317.56-3.25 316.46-5.1 316.46-7.5L316.46-7.5Q316.46-8.55 316.56-9.1L316.56-9.1 320.81-9.1Q320.66-8.3 320.66-7.5L320.66-7.5Q320.66-5.3 321.91-4.15 323.16-3 325.11-3L325.11-3Q326.81-3 327.86-4.08 328.91-5.15 328.91-6.75L328.91-6.75Q328.91-8.6 327.81-9.68 326.71-10.75 324.46-12.1L324.46-12.1Q322.66-13.15 321.56-14 320.46-14.85 319.68-16.2 318.91-17.55 318.91-19.5L318.91-19.5Q318.91-22.75 321.03-24.83 323.16-26.9 327.01-26.9L327.01-26.9Q330.76-26.9 332.63-24.53 334.51-22.15 334.51-18.65L334.51-18.65 330.26-18.65Q330.26-21.15 329.21-22.23 328.16-23.3 326.56-23.3L326.56-23.3Q325.31-23.3 324.23-22.43 323.16-21.55 323.16-20.1L323.16-20.1Q323.16-18.25 324.23-17.25 325.31-16.25 327.51-15.05L327.51-15.05Q329.31-14.05 330.43-13.23 331.56-12.4 332.36-10.98 333.16-9.55 333.16-7.4L333.16-7.4Q333.16-3.65 330.88-1.53 328.61 0.6 324.71 0.6L324.71 0.6ZM339.9-8.55L342.3-34.3 347.95-34.3 343-8.55 339.9-8.55ZM337.8 0L338.55-5.4 343.55-5.4 342.8 0 337.8 0Z" opacity="1" transform="matrix(1,0,0,1,0,0)" fill="#6b7280" class="slogan-text-1" data-fill-palette-color="secondary" id="text-1"></path></svg></g></svg></g></svg></g></svg></g><g transform="matrix(1,0,0,1,96.98397704964002,0)"><svg viewBox="0 0 201.55204590071995 201.55339776430625" height="201.55339776430625" width="201.55204590071995"><g><svg xmlns:dc="http://purl.org/dc/elements/1.1/" xmlns:cc="http://creativecommons.org/ns#" xmlns:rdf="http://www.w3.org/1999/02/22-rdf-syntax-ns#" xmlns:svg="http://www.w3.org/2000/svg" xmlns="http://www.w3.org/2000/svg" xmlns:sodipodi="http://sodipodi.sourceforge.net/DTD/sodipodi-0.dtd" xmlns:inkscape="http://www.inkscape.org/namespaces/inkscape" version="1.1" x="0" y="0" viewBox="4.9515398048999995 5.175850937152987 91.493779684647 91.494393357947" enable-background="new 0 0 100 52" xml:space="preserve" height="201.55339776430625" width="201.55204590071995" class="icon-icon-0" data-fill-palette-color="accent" id="icon-0"><g transform="matrix(0.6136733,-0.6136733,0.6136733,0.6136733,4.0598725,65.6509)" fill="#6b7280" data-fill-palette-color="accent"><path d="M47.807 33.138C47.815 33.129 47.823 33.119 47.831 33.112L47.805 33.135z" fill="none"></path><path d="M53.048 49.8C52.774 49.729 52.503 49.648 52.233 49.568L52.226 49.571C52.485 49.648 52.76 49.726 53.048 49.8" fill="none"></path><path d="M36.33 35.501H36.326C36.53 36.023 36.822 36.615 37.109 37.152H37.122C36.838 36.612 36.574 36.062 36.33 35.501" fill="none"></path><path d="M37.108 37.152C37.399 37.696 37.685 38.181 37.866 38.484A27 27 0 0 1 37.12 37.152z" fill="#6b7280" data-fill-palette-color="accent"></path><path d="M38.062 38.804H38.068C38.02 38.725 37.968 38.652 37.921 38.573z" fill="#6b7280" data-fill-palette-color="accent"></path><path d="M51.812 49.445A24 24 0 0 1 49.956 48.776L49.947 48.78C50.007 48.805 50.728 49.104 51.812 49.445" fill="#6b7280" data-fill-palette-color="accent"></path><path d="M52.226 49.57L52.233 49.567C52.127 49.537 52.02 49.51 51.915 49.476 52.016 49.509 52.12 49.541 52.226 49.57" fill="#6b7280" data-fill-palette-color="accent"></path><path d="M74.458 0.955H59.321C58.014 0.955 56.73 1.055 55.476 1.248 55.203 1.29 54.935 1.349 54.665 1.399A28.54 28.54 0 0 1 65.652 12.742H75.236C82.558 12.742 88.493 18.679 88.493 26.001 88.493 33.322 82.557 39.259 75.236 39.259H58.68A13.2 13.2 0 0 1 50.034 36.047L50.031 36.05C50.031 36.048 50.03 36.048 50.029 36.047A13 13 0 0 1 48.823 34.899C48.123 34.135 47.812 33.596 47.812 33.596L47.814 33.593 47.812 33.59A13.2 13.2 0 0 1 45.423 26.001C45.423 23.255 46.257 20.705 47.686 18.588 47.727 18.528 47.772 18.471 47.813 18.412A9.9 9.9 0 0 0 41.384 16.045H36.343A24.9 24.9 0 0 0 34.276 26.001 24.95 24.95 0 0 0 37.929 39.027C37.976 39.106 38.028 39.179 38.076 39.258A25.14 25.14 0 0 0 51.923 49.931C52.028 49.965 52.135 49.992 52.241 50.022 52.511 50.102 52.782 50.183 53.056 50.254 53.06 50.254 53.062 50.256 53.066 50.257 55.066 50.77 57.162 51.044 59.32 51.044H74.457C88.289 51.044 99.501 39.831 99.501 26 99.502 12.169 88.29 0.955 74.458 0.955" fill="#6b7280" data-fill-palette-color="accent"></path><path d="M25.542 51.045H40.679C41.987 51.045 43.271 50.944 44.525 50.751 44.798 50.709 45.067 50.651 45.336 50.6A28.53 28.53 0 0 1 34.349 39.258H24.764C17.442 39.258 11.507 33.322 11.507 25.999 11.507 18.677 17.442 12.742 24.764 12.742H41.319A13.2 13.2 0 0 1 49.964 15.954L49.966 15.951 49.968 15.954C50.463 16.367 50.855 16.755 51.174 17.102 51.875 17.864 52.185 18.404 52.185 18.404L52.183 18.407 52.186 18.41A13.2 13.2 0 0 1 54.576 25.998C54.576 28.744 53.741 31.295 52.312 33.41 52.271 33.472 52.227 33.528 52.185 33.586A9.9 9.9 0 0 0 58.614 35.955H63.656A25 25 0 0 0 65.721 25.998 24.95 24.95 0 0 0 62.122 13.06L62.069 12.971C62.021 12.893 61.97 12.818 61.922 12.741A25.14 25.14 0 0 0 50.034 2.768 26 26 0 0 0 48.178 2.098L48.075 2.066C47.97 2.034 47.863 2.007 47.757 1.977A20 20 0 0 0 46.941 1.745L46.932 1.743C44.932 1.228 42.837 0.955 40.677 0.955H25.542C11.71 0.955 0.498 12.167 0.498 25.999S11.71 51.045 25.542 51.045" fill="#6b7280" data-fill-palette-color="accent"></path><path d="M53.058 49.803C53.055 49.802 53.052 49.8 53.048 49.8 53.052 49.8 53.055 49.802 53.058 49.803" fill="#6b7280" data-fill-palette-color="accent"></path><path d="M51.812 49.445C51.846 49.456 51.88 49.467 51.915 49.476 51.881 49.468 51.847 49.456 51.812 49.445" fill="#6b7280" data-fill-palette-color="accent"></path><path d="M47.805 33.141S48.116 33.68 48.816 34.444L48.832 34.429C48.463 34.022 48.123 33.589 47.807 33.138z" fill="#6b7280" data-fill-palette-color="accent"></path><path d="M37.92 38.572" fill="#6b7280" data-fill-palette-color="accent"></path><path d="M48.832 34.429L48.816 34.444C49.135 34.791 49.527 35.178 50.022 35.592L50.024 35.589C49.604 35.227 49.204 34.84 48.832 34.429" fill="#6b7280" data-fill-palette-color="accent"></path><path d="M50.027 35.592C50.028 35.589 50.031 35.586 50.039 35.577L50.024 35.589z" fill="#6b7280" data-fill-palette-color="accent"></path><rect height="0.0040000002" width="0.0040000002" y="35.59" x="50.021999" fill="#6b7280" data-fill-palette-color="accent"></rect></g></svg></g></svg></g><g></g></svg></g><defs></defs></svg><rect width="364.97301851658125" height="327.2" fill="none" stroke="none" visibility="hidden"></rect></g></svg></g></svg>